<svg width="47" height="47" viewBox="0 0 47 47" fill="none" xmlns="http://www.w3.org/2000/svg">
<mask id="mask0_164_559" style="mask-type:alpha" maskUnits="userSpaceOnUse" x="0" y="0" width="47" height="47">
<rect width="47" height="47" fill="#D9D9D9"/>
</mask>
<g mask="url(#mask0_164_559)">
<path d="M33.2917 39.1666V33.2916H27.4167V29.375H33.2917V23.5H37.2083V29.375H43.0833V33.2916H37.2083V39.1666H33.2917ZM21.5417 33.2916H13.7083C10.9993 33.2916 8.6901 32.337 6.78073 30.4276C4.87135 28.5182 3.91667 26.209 3.91667 23.5C3.91667 20.791 4.87135 18.4818 6.78073 16.5724C8.6901 14.663 10.9993 13.7083 13.7083 13.7083H21.5417V17.625H13.7083C12.0764 17.625 10.6892 18.1962 9.54687 19.3385C8.40451 20.4809 7.83333 21.868 7.83333 23.5C7.83333 25.1319 8.40451 26.5191 9.54687 27.6614C10.6892 28.8038 12.0764 29.375 13.7083 29.375H21.5417V33.2916ZM15.6667 25.4583V21.5416H31.3333V25.4583H15.6667ZM43.0833 23.5H39.1667C39.1667 21.868 38.5955 20.4809 37.4531 19.3385C36.3108 18.1962 34.9236 17.625 33.2917 17.625H25.4583V13.7083H33.2917C36.0007 13.7083 38.3099 14.663 40.2193 16.5724C42.1286 18.4818 43.0833 20.791 43.0833 23.5Z" fill="white"/>
</g>
</svg>
