<svg width="47" height="47" viewBox="0 0 47 47" fill="none" xmlns="http://www.w3.org/2000/svg">
<mask id="mask0_164_553" style="mask-type:alpha" maskUnits="userSpaceOnUse" x="0" y="0" width="47" height="47">
<rect width="47" height="47" fill="#D9D9D9"/>
</mask>
<g mask="url(#mask0_164_553)">
<path d="M15.6667 31.3334H39.1667V11.75H15.6667V31.3334ZM15.6667 35.25C14.5896 35.25 13.6676 34.8665 12.9005 34.0995C12.1335 33.3325 11.75 32.4104 11.75 31.3334V7.83335C11.75 6.75627 12.1335 5.83422 12.9005 5.06721C13.6676 4.30019 14.5896 3.91669 15.6667 3.91669H39.1667C40.2438 3.91669 41.1658 4.30019 41.9328 5.06721C42.6998 5.83422 43.0834 6.75627 43.0834 7.83335V31.3334C43.0834 32.4104 42.6998 33.3325 41.9328 34.0995C41.1658 34.8665 40.2438 35.25 39.1667 35.25H15.6667ZM7.83335 43.0834C6.75627 43.0834 5.83422 42.6998 5.06721 41.9328C4.30019 41.1658 3.91669 40.2438 3.91669 39.1667V11.75H7.83335V39.1667H35.25V43.0834H7.83335Z" fill="white"/>
</g>
</svg>
