<svg width="47" height="47" viewBox="0 0 47 47" fill="none" xmlns="http://www.w3.org/2000/svg">
<mask id="mask0_164_565" style="mask-type:alpha" maskUnits="userSpaceOnUse" x="0" y="0" width="47" height="47">
<rect width="47" height="47" fill="#D9D9D9"/>
</mask>
<g mask="url(#mask0_164_565)">
<path d="M41.0271 43.8177L35.25 38.0406V42.3979H31.3333V31.3334H42.3979V35.25H37.9917L43.7687 41.0271L41.0271 43.8177ZM23.5 43.0834C20.791 43.0834 18.2451 42.5693 15.8625 41.5412C13.4799 40.513 11.4073 39.1177 9.64478 37.3552C7.88228 35.5927 6.48697 33.5202 5.45884 31.1375C4.43072 28.7549 3.91666 26.209 3.91666 23.5C3.91666 20.791 4.43072 18.2452 5.45884 15.8625C6.48697 13.4799 7.88228 11.4073 9.64478 9.64481C11.4073 7.88231 13.4799 6.487 15.8625 5.45887C18.2451 4.43075 20.791 3.91669 23.5 3.91669C26.209 3.91669 28.7549 4.43075 31.1375 5.45887C33.5201 6.487 35.5927 7.88231 37.3552 9.64481C39.1177 11.4073 40.513 13.4799 41.5411 15.8625C42.5693 18.2452 43.0833 20.791 43.0833 23.5C43.0833 24.1528 43.0507 24.8056 42.9854 25.4584C42.9201 26.1111 42.8222 26.7639 42.6917 27.4167H38.6771C38.8403 26.7639 38.9627 26.1111 39.0443 25.4584C39.1259 24.8056 39.1667 24.1528 39.1667 23.5C39.1667 22.8472 39.1259 22.1945 39.0443 21.5417C38.9627 20.8889 38.8403 20.2361 38.6771 19.5834H32.0187C32.1167 20.2361 32.1901 20.8889 32.2391 21.5417C32.288 22.1945 32.3125 22.8472 32.3125 23.5C32.3125 24.1528 32.288 24.8056 32.2391 25.4584C32.1901 26.1111 32.1167 26.7639 32.0187 27.4167H28.1021C28.2 26.7639 28.2734 26.1111 28.3224 25.4584C28.3713 24.8056 28.3958 24.1528 28.3958 23.5C28.3958 22.8472 28.3713 22.1945 28.3224 21.5417C28.2734 20.8889 28.2 20.2361 28.1021 19.5834H18.8979C18.8 20.2361 18.7266 20.8889 18.6776 21.5417C18.6286 22.1945 18.6042 22.8472 18.6042 23.5C18.6042 24.1528 18.6286 24.8056 18.6776 25.4584C18.7266 26.1111 18.8 26.7639 18.8979 27.4167H25.4583V31.3334H19.7792C20.1708 32.7368 20.6767 34.0832 21.2969 35.3724C21.917 36.6617 22.6514 37.8938 23.5 39.0688C24.1528 39.0688 24.8055 39.028 25.4583 38.9464C26.1111 38.8648 26.7639 38.7913 27.4167 38.7261V42.7406C26.7639 42.8059 26.1111 42.8794 25.4583 42.961C24.8055 43.0426 24.1528 43.0834 23.5 43.0834ZM8.32291 27.4167H14.9812C14.8833 26.7639 14.8099 26.1111 14.7609 25.4584C14.712 24.8056 14.6875 24.1528 14.6875 23.5C14.6875 22.8472 14.712 22.1945 14.7609 21.5417C14.8099 20.8889 14.8833 20.2361 14.9812 19.5834H8.32291C8.15971 20.2361 8.03732 20.8889 7.95572 21.5417C7.87412 22.1945 7.83332 22.8472 7.83332 23.5C7.83332 24.1528 7.87412 24.8056 7.95572 25.4584C8.03732 26.1111 8.15971 26.7639 8.32291 27.4167ZM9.98749 15.6667H15.7646C16.0583 14.459 16.4255 13.2759 16.8661 12.1172C17.3068 10.9585 17.8208 9.82433 18.4083 8.7146C16.6132 9.3021 14.9976 10.1915 13.5614 11.3828C12.1253 12.5742 10.934 14.0021 9.98749 15.6667ZM18.4083 38.2854C17.8208 37.1757 17.3068 36.0415 16.8661 34.8828C16.4255 33.7242 16.0583 32.541 15.7646 31.3334H9.98749C10.934 32.9979 12.1253 34.4259 13.5614 35.6172C14.9976 36.8085 16.6132 37.6979 18.4083 38.2854ZM19.7792 15.6667H27.2208C26.8292 14.2632 26.3233 12.9169 25.7031 11.6276C25.083 10.3384 24.3486 9.10627 23.5 7.93127C22.6514 9.10627 21.917 10.3384 21.2969 11.6276C20.6767 12.9169 20.1708 14.2632 19.7792 15.6667ZM31.2354 15.6667H37.0125C36.066 14.0021 34.8746 12.5742 33.4385 11.3828C32.0024 10.1915 30.3868 9.3021 28.5917 8.7146C29.1792 9.82433 29.6932 10.9585 30.1338 12.1172C30.5745 13.2759 30.9417 14.459 31.2354 15.6667Z" fill="white"/>
</g>
</svg>
