<svg width="47" height="47" viewBox="0 0 47 47" fill="none" xmlns="http://www.w3.org/2000/svg">
<mask id="mask0_33_458" style="mask-type:alpha" maskUnits="userSpaceOnUse" x="0" y="0" width="47" height="47">
<rect width="47" height="47" fill="#D9D9D9"/>
</mask>
<g mask="url(#mask0_33_458)">
<path d="M29.375 39.1666C25.0014 39.1666 21.2969 37.6489 18.2614 34.6135C15.226 31.5781 13.7083 27.8736 13.7083 23.5C13.7083 19.159 15.226 15.4627 18.2614 12.4109C21.2969 9.35918 25.0014 7.83331 29.375 7.83331C33.716 7.83331 37.4123 9.35918 40.464 12.4109C43.5158 15.4627 45.0416 19.159 45.0416 23.5C45.0416 27.8736 43.5158 31.5781 40.464 34.6135C37.4123 37.6489 33.716 39.1666 29.375 39.1666ZM29.375 35.25C32.6389 35.25 35.4132 34.1076 37.6979 31.8229C39.9826 29.5382 41.125 26.7639 41.125 23.5C41.125 20.2361 39.9826 17.4618 37.6979 15.1771C35.4132 12.8923 32.6389 11.75 29.375 11.75C26.1111 11.75 23.3368 12.8923 21.0521 15.1771C18.7673 17.4618 17.625 20.2361 17.625 23.5C17.625 26.7639 18.7673 29.5382 21.0521 31.8229C23.3368 34.1076 26.1111 35.25 29.375 35.25ZM33.8302 30.7948L36.6208 28.0041L31.3333 22.7166V15.6666H27.4166V24.3323L33.8302 30.7948ZM3.91665 17.625V13.7083H11.75V17.625H3.91665ZM1.95831 25.4583V21.5416H11.75V25.4583H1.95831ZM3.91665 33.2916V29.375H11.75V33.2916H3.91665Z" fill="white"/>
</g>
</svg>
